Coordinates
version=1
nRows=38
nColumns=12
inDegrees=yes

Units are S.I. units (second, meters, Newtons, ...)
Angles are in degrees

endheader
time	SC_y	SC_z	SC_x	AC_y	AC_z	AC_x	GH_y	GH_z	GH_yy	EL_x	PS_y
       0.0              -48.78           33.0          33.58          32.22         -5.808          13.33          123.3          74.09          123.4          129.7          109.3
   0.04587              -48.78           33.0          33.57          32.22         -5.806          13.33          123.2          74.08          123.4          129.7          109.3
   0.09174              -48.78           33.0          33.57          32.23         -5.804          13.33          123.2          74.07          123.3          129.7          109.3
    0.1376              -48.77           33.0          33.56          32.23         -5.803          13.33          123.2          74.06          123.3          129.7          109.3
    0.1835              -48.77           33.0          33.56          32.23         -5.801          13.33          123.1          74.04          123.3          129.7          109.3
    0.2293              -48.77           33.0          33.55          32.24         -5.799          13.33          123.1          74.03          123.3          129.7          109.3
    0.2752              -48.76           33.0          33.55          32.24         -5.796          13.33          123.1          74.02          123.3          129.7          109.3
    0.3211              -48.76           33.0          33.54          32.25         -5.794          13.33          123.0           74.0          123.3          129.7          109.4
    0.3669              -48.76           33.0          33.53          32.25         -5.792          13.33          123.0          73.99          123.3          129.7          109.4
    0.4128              -48.75           33.0          33.52          32.25         -5.789          13.33          122.9          73.97          123.2          129.7          109.4
    0.4587              -48.75          33.01          33.52          32.26         -5.786          13.32          122.9          73.95          123.2          129.6          109.4
    0.5046              -48.74          33.01          33.51          32.27         -5.783          13.32          122.8          73.93          123.2          129.6          109.4
    0.5504              -48.74          33.01           33.5          32.27          -5.78          13.32          122.8          73.91          123.2          129.6          109.4
    0.5963              -48.73          33.01          33.49          32.28         -5.776          13.32          122.7          73.88          123.2          129.6          109.4
    0.6422              -48.72          33.01          33.48          32.29         -5.773          13.32          122.7          73.86          123.1          129.6          109.4
     0.688              -48.72          33.01          33.46          32.29         -5.768          13.32          122.6          73.83          123.1          129.6          109.4
    0.7339              -48.71          33.01          33.45           32.3         -5.764          13.32          122.5           73.8          123.1          129.6          109.4
    0.7798               -48.7          33.01          33.44          32.31         -5.759          13.32          122.4          73.77          123.1          129.6          109.5
    0.8256              -48.69          33.02          33.42          32.32         -5.753          13.32          122.3          73.74          123.0          129.5          109.5
    0.8715              -48.68          33.02           33.4          32.33         -5.748          13.31          122.2           73.7          123.0          129.5          109.5
    0.9174              -48.67          33.02          33.39          32.34         -5.741          13.31          122.1          73.65          122.9          129.5          109.5
    0.9632              -48.66          33.02          33.37          32.36         -5.734          13.31          122.0          73.61          122.9          129.5          109.5
     1.009              -48.65          33.02          33.34          32.37         -5.726          13.31          121.8          73.56          122.8          129.5          109.6
     1.055              -48.63          33.03          33.32          32.39         -5.717          13.31          121.7           73.5          122.8          129.4          109.6
     1.101              -48.62          33.03          33.29           32.4         -5.708          13.31          121.5          73.44          122.7          129.4          109.6
     1.147               -48.6          33.03          33.26          32.42         -5.697           13.3          121.3          73.36          122.7          129.4          109.6
     1.193              -48.58          33.04          33.22          32.45         -5.685           13.3          121.1          73.28          122.6          129.3          109.7
     1.238              -48.56          33.04          33.18          32.47         -5.671           13.3          120.9           73.2          122.5          129.3          109.7
     1.284              -48.53          33.04          33.14           32.5         -5.656          13.29          120.6          73.09          122.4          129.3          109.8
      1.33               -48.5          33.05          33.09          32.53         -5.638          13.29          120.3          72.98          122.3          129.2          109.8
     1.376              -48.47          33.06          33.03          32.57         -5.618          13.28          119.9          72.85          122.2          129.1          109.9
     1.422              -48.44          33.06          32.96          32.61         -5.595          13.28          119.5           72.7          122.0          129.1          109.9
     1.468              -48.39          33.07          32.89          32.66         -5.569          13.27          119.1          72.53          121.8          129.0          110.0
     1.514              -48.34          33.08           32.8          32.72         -5.538          13.26          118.5          72.32          121.6          128.9          110.1
      1.56              -48.28          33.09          32.69          32.78         -5.502          13.25          117.9          72.09          121.4          128.8          110.2
     1.605              -48.21           33.1          32.57          32.86         -5.459          13.24          117.2          71.81          121.1          128.7          110.3
     1.651              -48.13          33.12          32.43          32.95         -5.409          13.23          116.3          71.48          120.8          128.5          110.5
     1.697              -48.03          33.14          32.25          33.06         -5.349          13.22          115.2          71.09          120.4          128.3          110.7
